<?xml version="1.0" encoding="utf-8"?>
<!-- Generator: Adobe Illustrator 21.0.0, SVG Export Plug-In . SVG Version: 6.00 Build 0)  -->
<svg version="1.1" id="图层_1" xmlns="http://www.w3.org/2000/svg" xmlns:xlink="http://www.w3.org/1999/xlink" x="0px" y="0px"
	 viewBox="0 0 800 600" style="enable-background:new 0 0 800 600;" xml:space="preserve">
<style type="text/css">
	.st0{clip-path:url(#SVGID_2_);fill:#969696;}
</style>
<g>
	<g>
		<g>
			<defs>
				<rect id="SVGID_1_" x="71" y="230" width="657.8" height="141.8"/>
			</defs>
			<clipPath id="SVGID_2_">
				<use xlink:href="#SVGID_1_"  style="overflow:visible;"/>
			</clipPath>
			<path class="st0" d="M141.5,230c-38.9,0-70.5,31.5-70.5,70.4s31.5,70.4,70.5,70.4c38.9,0,70.4-31.5,70.4-70.4
				S180.4,230,141.5,230L141.5,230z M399.8,230c-38.9,0-70.5,31.5-70.5,70.4s31.5,70.4,70.5,70.4c38.9,0,70.5-31.5,70.5-70.4
				C470.2,261.5,438.7,230,399.8,230L399.8,230z M658.1,230c-38.9,0-70.4,31.5-70.4,70.4s31.5,70.4,70.4,70.4s70.5-31.5,70.5-70.4
				C728.5,261.5,697,230,658.1,230L658.1,230z"/>
		</g>
	</g>
</g>
</svg>
